PathFileType	4	(X/Y/Z)	c:/Users/goper/Files/vsCode/490R/osim_files/C15/C15_Fast_01.trc
DataRate	CameraRate	NumFrames	NumMarkers	Units                	OrigDataRate	OrigDataStartFrame	OrigNumFrames
250.00	250.00	6	36	mm	250.0	1791	2387
                Frame#	Time	LPSIS			LASIS			LTH1			LTH2			LTH3			LTH4			LLFE			LMFE			LSH1			LSH2			LSH3			LSH4			LLMAL			LMMAL			LCAL			LMTP5			LTOE			LMTP1			RPSIS			RASIS			RTH1			RTH2			RTH3			RTH4			RLFE			RMFE			RSH1			RSH2			RSH3			RSH4			RLMAL			RMMAL			RCAL			RMTP1			RTOE			RMTP5		
		X1	Y1	Z1	X2	Y2	Z2	X3	Y3	Z3	X4	Y4	Z4	X5	Y5	Z5	X6	Y6	Z6	X7	Y7	Z7	X8	Y8	Z8	X9	Y9	Z9	X10	Y10	Z10	X11	Y11	Z11	X12	Y12	Z12	X13	Y13	Z13	X14	Y14	Z14	X15	Y15	Z15	X16	Y16	Z16	X17	Y17	Z17	X18	Y18	Z18	X19	Y19	Z19	X20	Y20	Z20	X21	Y21	Z21	X22	Y22	Z22	X23	Y23	Z23	X24	Y24	Z24	X25	Y25	Z25	X26	Y26	Z26	X27	Y27	Z27	X28	Y28	Z28	X29	Y29	Z29	X30	Y30	Z30	X31	Y31	Z31	X32	Y32	Z32	X33	Y33	Z33	X34	Y34	Z34	X35	Y35	Z35	X36	Y36	Z36

1791	7.16000	-1622.91455	1017.22668	265.47806	-1784.98926	992.75964	339.26614	-1659.69385	606.52002	388.41736	-1652.89014	561.99799	373.41919	-1710.59204	609.14270	380.38110	-1705.11707	564.31348	370.18756	-1652.51770	486.56204	352.05582	-1650.90649	474.02731	233.31442	-1566.61401	392.05072	364.73547	-1556.54712	349.08542	368.17780	-1625.16809	372.89844	360.08725	-1606.91431	331.81351	363.20374	-1505.10132	93.89604	297.53778	-1524.75281	118.30412	208.20511	-1438.96887	72.58171	253.84645	-1618.85083	39.45482	318.05365	-1675.60608	58.78602	254.19994	-1634.20801	34.93634	197.54082	-1631.19507	1013.12250	144.78734	-1789.99414	992.77069	89.82504	-1846.22290	637.06354	21.90395	-1867.76428	594.83038	33.03829	-1901.53491	658.99878	33.96680	-1915.78796	613.66742	39.59512	-1911.97498	516.97461	61.50483	-1908.53699	494.48288	176.72264	-1852.05420	398.62314	41.84193	-1862.35291	356.29526	37.60826	-1913.67786	405.63754	37.31018	-1914.11755	363.50775	31.73014	-1947.28650	99.22977	81.75883	-1983.26135	130.10065	164.46223	-1900.41260	61.66626	138.06027	-2104.52417	84.42979	144.88493	-2124.91382	112.99561	87.60266	-2065.27588	64.97426	34.19247
1792	7.16400	-1627.29028	1016.49109	264.87112	-1789.31580	992.27515	339.22394	-1662.00220	606.87756	388.72552	-1655.20154	561.83752	373.36612	-1713.19604	608.87775	380.55014	-1708.06116	563.93152	370.31815	-1654.62903	486.12219	351.33139	-1653.83752	473.95020	233.21339	-1568.24268	392.41208	364.56851	-1557.95190	349.50824	368.08084	-1626.64697	372.88147	360.12030	-1608.28088	331.90576	363.23883	-1505.37463	94.40503	297.45438	-1525.21704	118.72631	208.13339	-1439.08252	73.04232	254.01613	-1618.89160	39.47763	318.03378	-1675.70032	58.79827	254.22208	-1634.23401	34.95313	197.57158	-1636.09680	1012.41864	144.15930	-1795.18738	992.17230	89.91884	-1849.50159	635.66315	21.50784	-1870.64392	593.31769	32.38235	-1904.76892	657.24963	34.03772	-1918.93030	611.93787	39.48328	-1915.53711	515.49835	61.49257	-1911.69617	492.74652	176.73643	-1858.43335	396.37787	42.44045	-1869.37207	354.20377	37.26226	-1919.47974	404.72757	37.11632	-1920.92773	362.64746	31.56557	-1961.36108	98.42574	81.50692	-1995.59900	130.94901	164.14999	-1914.75391	60.07717	137.15819	-2118.40503	88.61099	145.27176	-2137.63184	117.56437	87.50193	-2080.28516	67.76474	34.54198
1793	7.16800	-1631.74365	1015.81073	264.26828	-1793.60291	991.87103	339.12262	-1664.62402	606.82568	388.65952	-1657.59387	561.87506	373.32364	-1715.84204	608.58185	380.69382	-1710.55530	563.72156	370.43927	-1656.84192	486.05518	351.36740	-1656.52759	473.69958	233.28334	-1569.81860	392.74100	364.40030	-1559.32178	349.94849	367.88168	-1628.19238	372.96814	360.19849	-1609.46460	331.88779	363.21692	-1505.63428	95.02724	297.37262	-1525.72131	119.11942	208.08472	-1439.38171	73.74893	253.79008	-1618.91931	39.49697	318.02438	-1675.79626	58.79504	254.25032	-1634.27551	34.98909	197.60808	-1641.02649	1011.65466	143.55217	-1800.40967	991.60846	90.03371	-1852.77075	634.17230	21.03225	-1873.62830	591.76892	31.69574	-1908.09839	655.74084	35.44541	-1921.87354	610.07855	39.11031	-1919.18225	514.05408	61.48104	-1914.80994	491.08032	176.72247	-1864.43250	394.16446	41.99519	-1876.30298	352.19403	36.81675	-1925.29004	403.84363	36.88421	-1927.65808	361.78683	31.25243	-1974.33484	98.44677	81.06028	-2007.46790	131.73125	163.92673	-1928.59644	58.74321	136.39798	-2131.51904	92.54443	145.11435	-2150.37427	122.14364	88.05848	-2094.34033	71.03459	34.60199
1794	7.17200	-1636.14307	1015.03473	263.67819	-1797.86072	991.31610	339.17908	-1667.43762	606.34192	388.24377	-1659.95435	561.63733	373.07285	-1718.54163	608.25873	380.85114	-1713.12671	563.44830	370.61096	-1659.06177	485.91144	351.39575	-1659.25793	473.44934	233.37239	-1571.52063	393.11523	364.20520	-1560.67236	350.43222	367.69693	-1629.77454	373.01770	360.16220	-1611.02588	332.20972	363.63742	-1505.86792	95.64387	297.31744	-1526.23389	119.59025	208.02603	-1439.22266	74.31455	252.95395	-1618.94214	39.48970	318.01651	-1675.85474	58.77223	254.28822	-1634.27051	35.00925	197.64606	-1645.96631	1010.83759	142.95741	-1805.64270	990.99518	90.17029	-1856.03625	632.72461	20.54473	-1876.70227	590.18854	30.91895	-1911.30334	653.91046	35.38079	-1924.84668	608.27142	38.56967	-1922.64587	512.43689	61.29771	-1917.76526	489.37405	176.61449	-1870.41968	392.00687	41.45006	-1883.11279	350.31625	36.28128	-1931.03748	403.01584	36.57698	-1934.69885	361.56570	30.78834	-1987.09326	98.60933	80.76974	-2019.05139	132.74507	163.71191	-1942.05286	57.60575	135.74762	-2143.67969	96.30380	145.48065	-2162.41089	126.66575	88.57670	-2107.90942	74.18787	34.76122
1795	7.17600	-1640.65137	1014.20569	263.03287	-1802.02197	990.71167	339.18335	-1669.87781	606.65521	388.50476	-1662.40686	561.60382	372.88788	-1721.18262	607.97461	380.99207	-1715.54651	563.09735	370.79382	-1661.36926	485.76553	351.41583	-1661.98694	473.20499	233.39203	-1573.25818	393.47501	363.97906	-1562.09924	350.85776	367.55484	-1631.40881	372.97324	360.18774	-1611.50745	331.36429	363.31061	-1506.11597	96.22786	297.21234	-1526.74438	120.06303	207.95735	-1439.93445	75.05251	253.74738	-1618.92212	39.46194	318.00262	-1675.93262	58.73616	254.31996	-1634.30969	35.00042	197.62973	-1650.91626	1009.99713	142.36470	-1810.95068	990.45844	90.26485	-1860.08826	630.94965	20.53380	-1879.88391	588.69250	30.09878	-1914.55603	652.19690	35.23787	-1927.87439	606.54816	37.89498	-1926.35706	510.75754	61.12564	-1920.64246	487.68649	176.47461	-1876.35547	389.90720	40.86809	-1889.98926	348.46957	35.68201	-1936.78149	402.23923	36.15078	-1941.18225	360.64276	30.39216	-1999.46484	98.97746	80.54935	-2030.01196	133.76877	163.64915	-1954.98914	56.83042	135.28702	-2154.00269	98.71329	145.24471	-2173.98193	131.08463	89.24712	-2121.02661	77.40359	35.15773
1796	7.18000	-1645.10071	1013.36365	262.41525	-1806.29065	990.19171	339.22617	-1672.48633	606.61230	388.45102	-1665.00085	561.59851	372.86264	-1723.81189	607.68103	381.24551	-1718.00964	562.74231	371.05780	-1663.68372	485.68115	351.46503	-1664.95142	472.90204	233.52058	-1574.94678	393.91199	363.74738	-1563.66443	351.32983	367.34436	-1632.89966	372.97150	360.26276	-1613.11841	331.91284	363.19458	-1506.41174	96.85001	297.12793	-1527.26367	120.49269	207.90602	-1440.00122	75.98926	253.47911	-1618.88586	39.44821	318.01126	-1676.01746	58.66385	254.40610	-1634.31799	34.99741	197.66762	-1655.92969	1009.13239	141.72531	-1816.22034	989.80225	90.33571	-1863.77722	629.27338	20.12726	-1883.47266	587.01477	29.30445	-1918.12683	650.28040	35.15841	-1930.96521	604.82086	37.07082	-1929.91895	509.43179	60.78524	-1923.48901	485.97690	176.35895	-1882.24280	387.88315	40.24480	-1896.64160	346.72092	35.06656	-1942.37000	401.41589	35.75099	-1947.51965	359.71283	29.97264	-2011.24060	99.24950	80.49584	-2040.73572	134.73006	163.75464	-1967.52087	56.15480	134.99782	-2167.15479	104.44752	146.56479	-2185.01489	135.39145	90.10896	-2133.54395	80.51681	35.70333
